/* XPM */
static const char *greenNext16_xpm[] = {
"16 16 2 1 0 0",
"! c #00ff00",
"$ c None",
"$$$$$$$$$$$$$$$$",
"$$$$$$!!!!$$$$$$",
"$$$$$$!!!!$$$$$$",
"$$$$$$!!!!$$$$$$",
"$$$$$$!!!!$$$$$$",
"$$$$$$!!!!$$$$$$",
"$$$$$$!!!!$$$$$$",
"$!!!!!!!!!!!!!!$",
"$$!!!!!!!!!!!!$$",
"$$$!!!!!!!!!!$$$",
"$$$$!!!!!!!!$$$$",
"$$$$$!!!!!!$$$$$",
"$$$$$$!!!!$$$$$$",
"$$$$$$$!!$$$$$$$",
"$$!!!!!!!!!!!!$$",
"$$$$$$$$$$$$$$$$"
};
