/* XPM */
static const char *greenNext16_xpm[] = {
"16 16 37 1 0 0",
"  c #096400",
"! c #09D001",
"# c #13D305",
"$ c #EDFCEC",
"% c #4EDF3C",
"& c #21D70A",
"' c #D9F8D5",
"( c #CDF6C7",
") c #88E97B",
"* c #21D60A",
"+ c #32DB10",
", c #B7F2AC",
"- c #6FE557",
". c #32DB0F",
"/ c #45E016",
"0 c #45DF16",
"1 c #AFF19A",
"2 c #7DE95C",
"3 c #44DF16",
"4 c #44E017",
"5 c #A0F07F",
"6 c #93EE6E",
"7 c #62E72B",
"8 c #58E51D",
"9 c #58E41D",
": c #58E51E",
"; c #57E51E",
"< c #83ED49",
"= c #6AE924",
"> c #6AEA24",
"? c #6AEA25",
"@ c #7BEE2A",
"A c #7BED2A",
"B c #7BED2B",
"C c #89F130",
"D c #89F22F",
"E c None",
"EEEEEEEEEEEEEEEE",
"EEEE        EEEE",
"EEEE !!!!!! EEEE",
"EEEE #$$$%# EEEE",
"EEEE &'()%* EEEE",
"EEEE &'()%* EEEE",
"E    +,-++.    E",
"E !/012344043! E",
"EE !56789:;9! EE",
"EEE !<=>?=>! EEE",
"EEEE !@A@B! EEEE",
"EEEEE !CD! EEEEE",
"!!!!!C !! ?88888",
"888888C  ?CCCCCC",
"!!!!!!!8?!!!!!!!",
"EEEEEEEEEEEEEEEE"
};
