/* XPM */
static const char *greenPrev32_xpm[] = {
"32 32 13 1 0 0",
"  c #09D001",
"! c #6AEA25",
"# c #58E51D",
"$ c #096400",
"% c #89F130",
"& c #83ED49",
"' c #A0F07F",
"( c #45E016",
") c #58E51E",
"* c #13D305",
"+ c #D9F8D5",
", c #88E97B",
"- c None",
"--------------------------------",
"--------------------------------",
"--------------------------------",
"--------------------------------",
"--            !!!!            --",
"--##########!!!$$!%%%%%%%%%%%%--",
"--##########!!!$$!%%%%%%%%%%%%--",
"--        %%%%$  $!!##########--",
"-------------$    $-------------",
"------------$ &&&& $------------",
"-----------$  &&&&  $-----------",
"----------$  &&&&&&  $----------",
"---------$ &&&&&&&&&& $---------",
"--------$  &&&&&&&&&&  $--------",
"-------$ ''''&&&&&&&&&& $-------",
"------$  ''''&&&&&&&&&&  $------",
"-----$ (((('''))))))))))) $-----",
"-----$ (((('''))))))))))) $-----",
"-----$$$$$$**''')))))$$$$$$-----",
"----------$**''')))))$----------",
"----------$**+++,,)))$----------",
"----------$**+++,,)))$----------",
"----------$**+++,,)))$----------",
"----------$**+++++)))$----------",
"----------$**+++++)))$----------",
"----------$**********$----------",
"----------$**********$----------",
"----------$$$$$$$$$$$$----------",
"--------------------------------",
"--------------------------------",
"--------------------------------",
"--------------------------------"
};
