/* XPM */
static const char *redNext22_xpm[] = {
"22 22 2 1 0 0",
"! c #ff0000",
"$ c None",
"$$$$$$$$$$$$$$$$$$$$$$",
"$$$$$$$$$!!!!$$$$$$$$$",
"$$$$$$$$$!!!!$$$$$$$$$",
"$$$$$$$$$!!!!$$$$$$$$$",
"$$$$$$$$$!!!!$$$$$$$$$",
"$$$$$$$$$!!!!$$$$$$$$$",
"$$$$$$$$$!!!!$$$$$$$$$",
"$$$$$$$$$!!!!$$$$$$$$$",
"$$$$$$$$$!!!!$$$$$$$$$",
"$$$$$$$$$!!!!$$$$$$$$$",
"$!!!!!!!!!!!!!!!!!!!!$",
"$$!!!!!!!!!!!!!!!!!!$$",
"$$$!!!!!!!!!!!!!!!!$$$",
"$$$$!!!!!!!!!!!!!!$$$$",
"$$$$$!!!!!!!!!!!!$$$$$",
"$$$$$$!!!!!!!!!!$$$$$$",
"$$$$$$$!!!!!!!!$$$$$$$",
"$$$$$$$$!!!!!!$$$$$$$$",
"$$$$$$$$$!!!!$$$$$$$$$",
"$$$$$$$$$$!!$$$$$$$$$$",
"$!!!!!!!!!!!!!!!!!!!!$",
"$$$$$$$$$$$$$$$$$$$$$$"
};
