/* XPM */
static const char *redNext22_xpm[] = {
"22 22 37 1 0 0",
"  c #640900",
"! c #D00901",
"# c #D31305",
"$ c #FCEDEC",
"% c #DF4E3C",
"& c #D7210A",
"' c #F8D9D5",
"( c #F6CDC7",
") c #E9887B",
"* c #D6210A",
"+ c #DB3210",
", c #F2B7AC",
"- c #E56F57",
". c #DB320F",
"/ c #E04516",
"0 c #DF4516",
"1 c #F1AF9A",
"2 c #E97D5C",
"3 c #DF4416",
"4 c #E04417",
"5 c #F0A07F",
"6 c #EE936E",
"7 c #E7622B",
"8 c #E5581D",
"9 c #E4581D",
": c #E5581E",
"; c #E5571E",
"< c #ED8349",
"= c #E96A24",
"> c #EA6A24",
"? c #EA6A25",
"@ c #EE7B2A",
"A c #ED7B2A",
"B c #ED7B2B",
"C c #F18930",
"D c #F2892F",
"E c None",
"EEEEEEEEEEEEEEEEEEEEEE",
"EEEEEEEEEEEEEEEEEEEEEE",
"EEEEEEEEEEEEEEEEEEEEEE",
"EEEEEEEEEEEEEEEEEEEEEE",
"EEEEEEE        EEEEEEE",
"EEEEEEE !!!!!! EEEEEEE",
"EEEEEEE #$$$%# EEEEEEE",
"EEEEEEE &'()%* EEEEEEE",
"EEEEEEE &'()%* EEEEEEE",
"EEEE    +,-++.    EEEE",
"EEEE !/012344043! EEEE",
"EEEEE !56789:;9! EEEEE",
"EEEEEE !<=>?=>! EEEEEE",
"EEEEEEE !@A@B! EEEEEEE",
"EEEEEEEE !CD! EEEEEEEE",
"EEE!!!!!C !! ?88888EEE",
"EEE888888C  ?CCCCCCEEE",
"EEE!!!!!!!8?!!!!!!!EEE",
"EEEEEEEEEEEEEEEEEEEEEE",
"EEEEEEEEEEEEEEEEEEEEEE",
"EEEEEEEEEEEEEEEEEEEEEE",
"EEEEEEEEEEEEEEEEEEEEEE"
};
