/* XPM */
static const char *redNext32_xpm[] = {
"32 32 37 1 0 0",
"  c #640900",
"! c #D00901",
"# c #D31305",
"$ c #DF4E3C",
"% c #FCEDEC",
"& c #D6210A",
"' c #E9887B",
"( c #F6CDC7",
") c #F8D9D5",
"* c #D7210A",
"+ c #DB320F",
", c #DB3210",
"- c #E56F57",
". c #F2B7AC",
"/ c #DF4416",
"0 c #E04417",
"1 c #DF4516",
"2 c #E97D5C",
"3 c #F1AF9A",
"4 c #E04516",
"5 c #E4581D",
"6 c #E5571E",
"7 c #E5581E",
"8 c #E5581D",
"9 c #E7622B",
": c #EE936E",
"; c #F0A07F",
"Z c #EA6A24",
"W c #E96A24",
"Y c #EA6A25",
"X c #ED8349",
"@ c #ED7B2B",
"A c #EE7B2A",
"B c #ED7B2A",
"C c #F2892F",
"D c #F18930",
"E c None",
"EEEEEEEEEEEEEEEEEEEEEEEEEEEEEEEE",
"EEEEEEEEEEEEEEEEEEEEEEEEEEEEEEEE",
"EEEEEEEEEEEEEEEEEEEEEEEEEEEEEEEE",
"EEEEEEEEEEEEEEEEEEEEEEEEEEEEEEEE",
"EEEEEEEEEE            EEEEEEEEEE",
"EEEEEEEEEE !!!!!!!!!! EEEEEEEEEE",
"EEEEEEEEEE !!!!!!!!!! EEEEEEEEEE",
"EEEEEEEEEE ##$%%%%%## EEEEEEEEEE",
"EEEEEEEEEE ##$%%%%%## EEEEEEEEEE",
"EEEEEEEEEE &&$''(()** EEEEEEEEEE",
"EEEEEEEEEE &&$''(()** EEEEEEEEEE",
"EEEEEEEEEE &&$''(()** EEEEEEEEEE",
"EEEEEEEEEE ++,,,--.,, EEEEEEEEEE",
"EEEEE      ++,,,--.,,      EEEEE",
"EEEEE !//0011000//2331144! EEEEE",
"EEEEE !//0011000//2331144! EEEEE",
"EEEEEE !!5566755889::;;!! EEEEEE",
"EEEEEEE !5566755889::;;! EEEEEEE",
"EEEEEEEE !!ZZWYYZZWXX!! EEEEEEEE",
"EEEEEEEEE !ZZWYYZZWXX! EEEEEEEEE",
"EEEEEEEEEE !!@AABBA!! EEEEEEEEEE",
"EEEEEEEEEEE !!CCDD!! EEEEEEEEEEE",
"EEEEEEEEEEEE !CCDD! EEEEEEEEEEEE",
"EEEEEEEEEEEEE !!!! EEEEEEEEEEEEE",
"EE888888888YYY !! !!!!!!!!!!!!EE",
"EEDDDDDDDDDDDYY  8888888888888EE",
"EEDDDDDDDDDDDYY  8888888888888EE",
"EE!!!!!!!!!!!!YY88!!!!!!!!!!!!EE",
"EEEEEEEEEEEEEEEEEEEEEEEEEEEEEEEE",
"EEEEEEEEEEEEEEEEEEEEEEEEEEEEEEEE",
"EEEEEEEEEEEEEEEEEEEEEEEEEEEEEEEE",
"EEEEEEEEEEEEEEEEEEEEEEEEEEEEEEEE"
};
