/* XPM */
static const char *redPrev16_xpm[] = {
"16 16 37 1 0 0",
"  c #D00901",
"! c #E5581D",
"# c #EA6A25",
"$ c #F18930",
"% c #640900",
"& c #F2892F",
"' c #EE7B2A",
"( c #ED7B2A",
") c #ED7B2B",
"* c #ED8349",
"+ c #E96A24",
", c #EA6A24",
"- c #F0A07F",
". c #EE936E",
"/ c #E7622B",
"0 c #E4581D",
"1 c #E5581E",
"2 c #E5571E",
"3 c #E04516",
"4 c #DF4516",
"5 c #F1AF9A",
"6 c #E97D5C",
"7 c #DF4416",
"8 c #E04417",
"9 c #DB3210",
": c #F2B7AC",
"; c #E56F57",
"< c #DB320F",
"= c #D7210A",
"> c #F8D9D5",
"? c #F6CDC7",
"@ c #E9887B",
"A c #DF4E3C",
"B c #D6210A",
"C c #D31305",
"D c #FCEDEC",
"E c None",
"EEEEEEEEEEEEEEEE",
"       !#       ",
"!!!!!!$%%#$$$$$$",
"     $%  %#!!!!!",
"EEEEE% $& %EEEEE",
"EEEE% '(') %EEEE",
"EEE% *+,#+, %EEE",
"EE% -./!0120 %EE",
"E% 3456788487 %E",
"E%%%%9:;99<%%%%E",
"EEEE%=>?@AB%EEEE",
"EEEE%=>?@AB%EEEE",
"EEEE%CDDDAC%EEEE",
"EEEE%      %EEEE",
"EEEE%%%%%%%%EEEE",
"EEEEEEEEEEEEEEEE"
};
