/* XPM */
static const char *redPrev16_xpm[] = {
"16 16 2 1 0 0",
"! c #ff0000",
"$ c None",
"$$$$$$$$$$$$$$$$",
"$$!!!!!!!!!!!!$$",
"$$$$$$$!!$$$$$$$",
"$$$$$$!!!!$$$$$$",
"$$$$$!!!!!!$$$$$",
"$$$$!!!!!!!!$$$$",
"$$$!!!!!!!!!!$$$",
"$$!!!!!!!!!!!!$$",
"$!!!!!!!!!!!!!!$",
"$$$$$$!!!!$$$$$$",
"$$$$$$!!!!$$$$$$",
"$$$$$$!!!!$$$$$$",
"$$$$$$!!!!$$$$$$",
"$$$$$$!!!!$$$$$$",
"$$$$$$!!!!$$$$$$",
"$$$$$$$$$$$$$$$$"
};
